<svg xmlns="http://www.w3.org/2000/svg" xmlns:xlink="http://www.w3.org/1999/xlink" aria-hidden="true" role="img" class="iconify iconify--logos" width="32" height="32" preserveAspectRatio="xMidYMid meet" viewBox="0 0 256 256"><path fill="#F7DF1E" d="M0 0h256v256H0V0Z"></path><path d="m67.312 213.932l19.59-11.856c3.78 6.701 7.218 12.371 15.465 12.371c7.905 0 12.89-3.092 12.89-15.12v-81.798h24.057v82.138c0 24.917-14.606 36.259-35.916 36.259c-19.245 0-30.416-9.967-36.087-21.996m85.07-2.576l19.588-11.341c5.157 8.421 11.859 14.607 23.715 14.607c9.969 0 16.325-4.984 16.325-11.858c0-8.248-6.53-11.17-17.528-15.98l-6.013-2.58c-17.357-7.387-28.87-16.667-28.87-36.257c0-18.044 13.747-31.792 35.228-31.792c15.294 0 26.292 5.328 34.196 19.247l-18.732 12.03c-4.125-7.389-8.591-10.31-15.465-10.31c-7.046 0-11.514 4.468-11.514 10.31c0 7.217 4.468 10.14 14.778 14.608l6.014 2.577c20.45 8.765 31.963 17.7 31.963 37.804c0 21.654-17.012 33.51-39.867 33.51c-22.339 0-36.774-10.654-43.819-24.574"></path>
<defs><symbol id="icon-brush-icon" viewBox="0 0 32 32">
<path fill="none" stroke="#fafafa" style="stroke: var(--color1, #fafafa)" stroke-linejoin="round" stroke-linecap="round" stroke-miterlimit="4" stroke-width="2.6667" d="M17.037 20l-5.037-5.037"></path>
<path fill="none" stroke="#fafafa" style="stroke: var(--color1, #fafafa)" stroke-linejoin="round" stroke-linecap="round" stroke-miterlimit="4" stroke-width="2.6667" d="M2.667 29.333c2.667 0 6.144 0.456 7.966-1.367s1.822-4.777 0-6.6c-1.822-1.823-4.777-1.823-6.6 0s0 5.3-1.367 7.966z"></path>
<path fill="none" stroke="#fafafa" style="stroke: var(--color1, #fafafa)" stroke-linejoin="round" stroke-linecap="round" stroke-miterlimit="4" stroke-width="2.6667" d="M10.667 21.333c-0.655-0.655-0.983-0.983-1.168-1.326-0.444-0.823-0.425-1.818 0.050-2.623 0.198-0.336 0.538-0.651 1.218-1.28l13.157-12.183c1.159-1.073 2.959-1.038 4.075 0.078s1.151 2.917 0.078 4.075l-12.183 13.157c-0.63 0.68-0.944 1.020-1.28 1.218-0.805 0.475-1.8 0.495-2.623 0.051-0.343-0.185-0.671-0.513-1.326-1.168z"></path>
</symbol>
<symbol id="icon-message-chat-icon" viewBox="0 0 32 32">
<path fill="none" stroke="#fafafa" style="stroke: var(--color1, #fafafa)" stroke-linejoin="round" stroke-linecap="round" stroke-miterlimit="4" stroke-width="2.6667" d="M8.126 14.972c-0.083-0.534-0.126-1.081-0.126-1.638 0-5.891 4.807-10.667 10.737-10.667s10.737 4.776 10.737 10.667c0 1.331-0.245 2.605-0.693 3.779-0.093 0.244-0.14 0.366-0.161 0.461s-0.029 0.161-0.031 0.257c-0.002 0.097 0.011 0.205 0.037 0.42l0.537 4.36c0.058 0.472 0.087 0.708 0.009 0.88-0.069 0.15-0.191 0.27-0.343 0.335-0.173 0.075-0.409 0.040-0.879-0.029l-4.247-0.623c-0.222-0.033-0.333-0.049-0.434-0.048-0.1 0.001-0.169 0.008-0.267 0.028s-0.225 0.068-0.477 0.163c-1.178 0.441-2.454 0.683-3.787 0.683-0.558 0-1.105-0.042-1.64-0.124M10.175 29.333c3.953 0 7.158-3.283 7.158-7.333s-3.205-7.333-7.158-7.333c-3.953 0-7.158 3.283-7.158 7.333 0 0.814 0.13 1.597 0.369 2.329 0.101 0.309 0.152 0.464 0.168 0.57 0.017 0.11 0.020 0.172 0.014 0.284-0.006 0.107-0.033 0.227-0.086 0.469l-0.815 3.682 3.993-0.545c0.218-0.030 0.327-0.045 0.422-0.044 0.1 0.001 0.153 0.006 0.252 0.026 0.093 0.019 0.232 0.067 0.51 0.165 0.731 0.258 1.516 0.398 2.332 0.398z"></path>
</symbol>
<symbol id="icon-hourglass-icon" viewBox="0 0 32 32">
<path fill="none" stroke="#fafafa" style="stroke: var(--color1, #fafafa)" stroke-linejoin="round" stroke-linecap="round" stroke-miterlimit="4" stroke-width="2.6667" d="M24.217 2.667h-16.434c-0.617 0-1.117 0.5-1.117 1.117 0 3.554 1.412 6.962 3.925 9.475l1.626 1.626c0.161 0.161 0.242 0.242 0.3 0.32 0.352 0.473 0.352 1.121 0 1.594-0.058 0.077-0.139 0.158-0.3 0.32l-1.626 1.626c-2.513 2.513-3.925 5.921-3.925 9.475 0 0.617 0.5 1.117 1.117 1.117h16.434c0.617 0 1.117-0.5 1.117-1.117 0-3.554-1.412-6.962-3.925-9.475l-1.626-1.626c-0.161-0.161-0.242-0.242-0.3-0.32-0.353-0.473-0.353-1.121 0-1.594 0.058-0.077 0.139-0.158 0.3-0.32l1.626-1.626c2.513-2.513 3.925-5.921 3.925-9.475 0-0.617-0.5-1.117-1.117-1.117z"></path>
</symbol>
<symbol id="icon-user-icon" viewBox="0 0 32 32">
<path fill="none" stroke="#fafafa" style="stroke: var(--color1, #fafafa)" stroke-linejoin="round" stroke-linecap="round" stroke-miterlimit="4" stroke-width="2.6667" d="M26.667 28c0-1.861 0-2.791-0.23-3.548-0.517-1.705-1.851-3.039-3.556-3.556-0.757-0.23-1.687-0.23-3.548-0.23h-6.667c-1.861 0-2.791 0-3.548 0.23-1.705 0.517-3.038 1.851-3.556 3.556-0.23 0.757-0.23 1.687-0.23 3.548"></path>
<path fill="none" stroke="#fafafa" style="stroke: var(--color1, #fafafa)" stroke-linejoin="round" stroke-linecap="round" stroke-miterlimit="4" stroke-width="2.6667" d="M16 16c3.314 0 6-2.686 6-6s-2.686-6-6-6c-3.314 0-6 2.686-6 6s2.686 6 6 6z"></path>
</symbol>
<symbol id="icon-arrow-narrow-right-new" viewBox="0 0 32 32">
<path fill="none" stroke="#fafafa" style="stroke: var(--color1, #fafafa)" stroke-linejoin="round" stroke-linecap="round" stroke-miterlimit="4" stroke-width="2" d="M5.333 16h21.333"></path>
<path fill="none" stroke="#fafafa" style="stroke: var(--color1, #fafafa)" stroke-linejoin="round" stroke-linecap="round" stroke-miterlimit="4" stroke-width="2" d="M18.666 8l8 8-8 8"></path>
</symbol>
<symbol id="icon-btn-menu-phone" viewBox="0 0 64 32">
<path stroke-linejoin="round" stroke-linecap="round" stroke-miterlimit="4" stroke-width="5.7143" d="M2.857 4.667h58.286M2.857 27.333h58.286"></path>
</symbol>
<symbol id="icon-close" viewBox="0 0 32 32">
<path fill="none" stroke="#fbfbfb" style="stroke: var(--color1, #fbfbfb)" stroke-linejoin="round" stroke-linecap="round" stroke-miterlimit="4" stroke-width="2.3529" d="M24 8l-16 16M8 8l16 16"></path>
</symbol></defs></svg>